<svg width="613" height="37" viewBox="0 0 613 37" fill="none" xmlns="http://www.w3.org/2000/svg">
<path d="M13.9 0.999974C18.4333 0.999974 22 2.08331 24.6 4.24997C27.2 6.41664 28.5 9.39997 28.5 13.2C28.5 17 27.2 19.9833 24.6 22.15C22 24.3166 18.4333 25.4 13.9 25.4H5.25V36H0.25V0.999974H13.9ZM13.75 21.05C16.9167 21.05 19.3333 20.3833 21 19.05C22.6667 17.6833 23.5 15.7333 23.5 13.2C23.5 10.6666 22.6667 8.73331 21 7.39997C19.3333 6.03331 16.9167 5.34997 13.75 5.34997H5.25V21.05H13.75Z" fill="#F2F2F2"/>
<path d="M68.7457 31.65V36H43.3457V0.999974H68.0457V5.34997H48.3457V16.1H65.8957V20.35H48.3457V31.65H68.7457Z" fill="#F2F2F2"/>
<path d="M91.2918 5.34997H79.2918V0.999974H108.242V5.34997H96.2418V36H91.2918V5.34997Z" fill="#F2F2F2"/>
<path d="M146.588 31.65V36H121.188V0.999974H145.887V5.34997H126.188V16.1H143.738V20.35H126.188V31.65H146.588Z" fill="#F2F2F2"/>
<path d="M185.584 36L178.034 25.25C177.1 25.3166 176.367 25.35 175.834 25.35H167.184V36H162.184V0.999974H175.834C180.367 0.999974 183.934 2.08331 186.534 4.24997C189.134 6.41664 190.434 9.39997 190.434 13.2C190.434 15.9 189.767 18.2 188.434 20.1C187.1 22 185.2 23.3833 182.734 24.25L191.034 36H185.584ZM175.684 21.1C178.85 21.1 181.267 20.4166 182.934 19.05C184.6 17.6833 185.434 15.7333 185.434 13.2C185.434 10.6666 184.6 8.73331 182.934 7.39997C181.267 6.03331 178.85 5.34997 175.684 5.34997H167.184V21.1H175.684Z" fill="#F2F2F2"/>
<path d="M257.339 0.999974L241.989 36H237.039L221.639 0.999974H227.039L239.639 29.75L252.339 0.999974H257.339Z" fill="#F2F2F2"/>
<path d="M294.703 31.65V36H269.303V0.999974H294.003V5.34997H274.303V16.1H291.853V20.35H274.303V31.65H294.703Z" fill="#F2F2F2"/>
<path d="M333.699 36L326.149 25.25C325.216 25.3166 324.482 25.35 323.949 25.35H315.299V36H310.299V0.999974H323.949C328.482 0.999974 332.049 2.08331 334.649 4.24997C337.249 6.41664 338.549 9.39997 338.549 13.2C338.549 15.9 337.882 18.2 336.549 20.1C335.215 22 333.315 23.3833 330.849 24.25L339.149 36H333.699ZM323.799 21.1C326.965 21.1 329.382 20.4166 331.049 19.05C332.715 17.6833 333.549 15.7333 333.549 13.2C333.549 10.6666 332.715 8.73331 331.049 7.39997C329.382 6.03331 326.965 5.34997 323.799 5.34997H315.299V21.1H323.799Z" fill="#F2F2F2"/>
<path d="M376.427 27.25H357.827L353.977 36H348.827L364.677 0.999974H369.627L385.527 36H380.277L376.427 27.25ZM374.677 23.25L367.127 6.09997L359.577 23.25H374.677Z" fill="#F2F2F2"/>
<path d="M408.448 36.4C405.815 36.4 403.265 36 400.798 35.2C398.365 34.3666 396.448 33.3 395.048 32L396.898 28.1C398.231 29.3 399.931 30.2833 401.998 31.05C404.098 31.7833 406.248 32.15 408.448 32.15C411.348 32.15 413.515 31.6666 414.948 30.7C416.381 29.7 417.098 28.3833 417.098 26.75C417.098 25.55 416.698 24.5833 415.898 23.85C415.131 23.0833 414.165 22.5 412.998 22.1C411.865 21.7 410.248 21.25 408.148 20.75C405.515 20.1166 403.381 19.4833 401.748 18.85C400.148 18.2166 398.765 17.25 397.598 15.95C396.465 14.6166 395.898 12.8333 395.898 10.6C395.898 8.73331 396.381 7.04998 397.348 5.54998C398.348 4.04997 399.848 2.84997 401.848 1.94997C403.848 1.04997 406.331 0.599976 409.298 0.599976C411.365 0.599976 413.398 0.866642 415.398 1.39997C417.398 1.93331 419.115 2.69997 420.548 3.69998L418.898 7.69997C417.431 6.76664 415.865 6.06664 414.198 5.59997C412.531 5.09998 410.898 4.84997 409.298 4.84997C406.465 4.84997 404.331 5.36664 402.898 6.39998C401.498 7.43331 400.798 8.76664 400.798 10.4C400.798 11.6 401.198 12.5833 401.998 13.35C402.798 14.0833 403.781 14.6666 404.948 15.1C406.148 15.5 407.765 15.9333 409.798 16.4C412.431 17.0333 414.548 17.6666 416.148 18.3C417.748 18.9333 419.115 19.9 420.248 21.2C421.415 22.5 421.998 24.25 421.998 26.45C421.998 28.2833 421.498 29.9666 420.498 31.5C419.498 33 417.981 34.2 415.948 35.1C413.915 35.9666 411.415 36.4 408.448 36.4Z" fill="#F2F2F2"/>
<path d="M443.264 5.34997H431.264V0.999974H460.214V5.34997H448.214V36H443.264V5.34997Z" fill="#F2F2F2"/>
<path d="M498.56 31.65V36H473.16V0.999974H497.86V5.34997H478.16V16.1H495.71V20.35H478.16V31.65H498.56Z" fill="#F2F2F2"/>
<path d="M538.26 18.3H543.06V31.95C541.326 33.3833 539.31 34.4833 537.01 35.25C534.71 36.0166 532.31 36.4 529.81 36.4C526.276 36.4 523.093 35.6333 520.26 34.1C517.426 32.5333 515.193 30.4 513.56 27.7C511.96 24.9666 511.16 21.9 511.16 18.5C511.16 15.1 511.96 12.0333 513.56 9.29997C515.193 6.56664 517.426 4.43331 520.26 2.89997C523.126 1.36664 526.343 0.599976 529.91 0.599976C532.71 0.599976 535.243 1.06664 537.51 1.99998C539.81 2.89997 541.76 4.23331 543.36 5.99997L540.26 9.09997C537.46 6.39998 534.076 5.04998 530.11 5.04998C527.443 5.04998 525.043 5.63331 522.91 6.79997C520.81 7.93331 519.16 9.53331 517.96 11.6C516.76 13.6333 516.16 15.9333 516.16 18.5C516.16 21.0333 516.76 23.3333 517.96 25.4C519.16 27.4333 520.81 29.0333 522.91 30.2C525.043 31.3666 527.426 31.95 530.06 31.95C533.193 31.95 535.926 31.2 538.26 29.7V18.3Z" fill="#F2F2F2"/>
<path d="M574.633 36.4C569.966 36.4 566.333 35.0666 563.733 32.4C561.133 29.7333 559.833 25.9 559.833 20.9V0.999974H564.833V20.7C564.833 28.2 568.116 31.95 574.683 31.95C577.883 31.95 580.333 31.0333 582.033 29.2C583.733 27.3333 584.583 24.5 584.583 20.7V0.999974H589.433V20.9C589.433 25.9333 588.133 29.7833 585.533 32.45C582.933 35.0833 579.299 36.4 574.633 36.4Z" fill="#F2F2F2"/>
<path d="M607.184 0.999974H612.184V36H607.184V0.999974Z" fill="#F2F2F2"/>
</svg>
